#!OML:ASF H:\Pregnant\Project 1\Capture day 1\Session 1\femalepreg.ASF
:FULLY-SPECIFIED
:DEGREES
238
root 5.91012 14.1021 -1.2525 34.7333 -5.43026 -1.25697
lowerback -2.71063 -0.343992 -0.0380307
upperback -9.38354 -0.487329 0.0564455
thorax -8.31252 -0.247756 0.104508
lowerneck -31.1223 3.97091 6.18511
upperneck 18.5743 3.04114 -1.2944
head 11.1966 1.66242 -0.918648
rclavicle 6.95746e-015 5.1684e-015
rhumerus -3.933 7.06118 -86.9506
rradius 104.617
rwrist 16.1649
rhand 13.6923 -15.9643
rfingers 7.12502
rthumb 38.6194 -41.5923
lclavicle 6.95746e-015 5.1684e-015
lhumerus -1.46459 0.929549 78.6007
lradius 108.707
lwrist 14.3976
lhand 19.6921 19.8639
lfingers 7.12502
lthumb 44.2481 43.6536
rfemur -77.7416 5.38651 19.8451
rtibia 73.5646
rfoot -25.0321 -12.2716
rtoes -16.7193
lfemur -78.005 -1.95117 -20.0636
ltibia 69.675
lfoot -23.124 7.54481
ltoes -15.7629
239
root 5.90647 14.1065 -1.25891 34.7563 -5.35532 -1.27063
lowerback -2.72755 -0.367333 -0.0320149
upperback -9.39472 -0.518241 0.0658159
thorax -8.31493 -0.263224 0.112361
lowerneck -31.1167 3.97279 6.20007
upperneck 18.5872 3.04511 -1.32267
head 11.2015 1.6616 -0.930897
rclavicle 2.3556e-014 -2.78299e-015
rhumerus -3.96635 7.0378 -86.933
rradius 104.627
rwrist 16.1585
rhand 13.6973 -15.9788
rfingers 7.12502
rthumb 38.624 -41.6055
lclavicle 2.3556e-014 -2.78299e-015
lhumerus -1.45613 0.944605 78.6028
lradius 108.688
lwrist 14.3823
lhand 19.6659 19.8611
lfingers 7.12502
lthumb 44.2237 43.66
rfemur -77.7367 5.21619 20.0198
rtibia 73.5058
rfoot -25.0479 -12.1528
rtoes -16.5342
lfemur -78.0428 -1.88291 -20.1362
ltibia 69.612
lfoot -23.0828 7.56947
ltoes -15.4864
240
root 5.90294 14.1104 -1.26481 34.7786 -5.28799 -1.29219
lowerback -2.75052 -0.379832 -0.020373
upperback -9.41002 -0.534282 0.0755473
thorax -8.31844 -0.271672 0.116739
lowerneck -31.1001 3.96323 6.18523
upperneck 18.6059 3.04165 -1.32883
head 11.2056 1.65837 -0.931632
rclavicle 9.93923e-017 -2.98177e-015
rhumerus -4.01062 6.999 -86.9011
rradius 104.641
rwrist 16.1515
rhand 13.7045 -15.9976
rfingers 7.12502
rthumb 38.6309 -41.6224
lclavicle 9.93923e-017 -2.98177e-015
lhumerus -1.46421 0.94107 78.6172
lradius 108.674
lwrist 14.3645
lhand 19.6438 19.865
lfingers 7.12502
lthumb 44.2031 43.6717
rfemur -77.7321 5.05378 20.2001
rtibia 73.4511
rfoot -25.0635 -12.0357
rtoes -16.3569
lfemur -78.0776 -1.80709 -20.1996
ltibia 69.5587
lfoot -23.0502 7.58828
ltoes -15.2422
241
root 5.89943 14.1136 -1.27034 34.8009 -5.22923 -1.31868
lowerback -2.77916 -0.387747 -0.0111084
upperback -9.42486 -0.543974 0.0880205
thorax -8.31809 -0.276655 0.124986
lowerneck -31.0777 3.95483 6.1755
upperneck 18.6227 3.04109 -1.34669
head 11.2083 1.65522 -0.937088
rclavicle 1.93815e-015 -1.27222e-014
rhumerus -4.05008 6.95821 -86.8637
rradius 104.657
rwrist 16.1463
rhand 13.7151 -16.0174
rfingers 7.12502
rthumb 38.6408 -41.6394
lclavicle 1.93815e-015 -1.27222e-014
lhumerus -1.48032 0.936031 78.6366
lradius 108.663
lwrist 14.3439
lhand 19.6227 19.8714
lfingers 7.12502
lthumb 44.1834 43.6855
rfemur -77.731 4.90054 20.3815
rtibia 73.4
rfoot -25.0763 -11.9208
rtoes -16.1884
lfemur -78.1131 -1.72401 -20.255
ltibia 69.5151
lfoot -23.0232 7.59301
ltoes -15.0585
242
root 5.89597 14.1161 -1.27553 34.8214 -5.17995 -1.34661
lowerback -2.80766 -0.391686 -0.00710542
upperback -9.44326 -0.548334 0.101619
thorax -8.32172 -0.278524 0.137131
lowerneck -31.0447 3.94447 6.1553
upperneck 18.6428 3.04063 -1.35436
head 11.2102 1.65283 -0.937157
rclavicle -1.23743e-014 2.18663e-015
rhumerus -4.094 6.91617 -86.8228
rradius 104.675
rwrist 16.1436
rhand 13.7217 -16.0323
rfingers 7.12502
rthumb 38.6471 -41.6525
lclavicle -1.23743e-014 2.18663e-015
lhumerus -1.50696 0.927031 78.6607
lradius 108.655
lwrist 14.3252
lhand 19.6061 19.8835
lfingers 7.12502
lthumb 44.1679 43.7034
rfemur -77.7329 4.75424 20.5601
rtibia 73.3536
rfoot -25.0856 -11.8075
rtoes -16.0311
lfemur -78.1484 -1.63473 -20.3052
ltibia 69.481
lfoot -22.999 7.58005
ltoes -14.9338
243
root 5.89251 14.118 -1.28032 34.838 -5.14209 -1.37499
lowerback -2.83742 -0.392767 -0.0110527
upperback -9.45775 -0.548924 0.115997
thorax -8.3202 -0.277872 0.154328
lowerneck -31.0172 3.93724 6.14127
upperneck 18.6634 3.04352 -1.37046
head 11.2135 1.65121 -0.940684
rclavicle -9.93923e-016 -1.78906e-014
rhumerus -4.12709 6.875 -86.7816
rradius 104.691
rwrist 16.1454
rhand 13.7197 -16.0381
rfingers 7.12502
rthumb 38.6452 -41.6588
lclavicle -9.93923e-016 -1.78906e-014
lhumerus -1.5316 0.918383 78.6853
lradius 108.648
lwrist 14.3105
lhand 19.6037 19.8994
lfingers 7.12502
lthumb 44.1658 43.7201
rfemur -77.7349 4.61598 20.7342
rtibia 73.3123
rfoot -25.0958 -11.6934
rtoes -15.8824
lfemur -78.1806 -1.53581 -20.3544
ltibia 69.4549
lfoot -22.9786 7.54734
ltoes -14.861
244
root 5.88903 14.1195 -1.28482 34.8507 -5.11527 -1.40048
lowerback -2.86704 -0.391703 -0.0252186
upperback -9.46995 -0.546939 0.128471
thorax -8.31616 -0.275242 0.175094
lowerneck -31.0008 3.93129 6.12074
upperneck 18.6941 3.04687 -1.37392
head 11.2222 1.65112 -0.938238
rclavicle 5.81445e-015 8.54774e-015
rhumerus -4.15422 6.83197 -86.7443
rradius 104.706
rwrist 16.1522
rhand 13.7025 -16.0319
rfingers 7.12502
rthumb 38.6289 -41.6572
lclavicle 5.81445e-015 8.54774e-015
lhumerus -1.55457 0.906597 78.7072
lradius 108.643
lwrist 14.3041
lhand 19.6092 19.9144
lfingers 7.12502
lthumb 44.1708 43.7332
rfemur -77.7384 4.48309 20.9009
rtibia 73.2769
rfoot -25.1071 -11.5768
rtoes -15.7342
lfemur -78.2102 -1.42656 -20.4092
ltibia 69.4343
lfoot -22.9608 7.49405
ltoes -14.8211
245
root 5.88512 14.1207 -1.28889 34.8551 -5.10186 -1.42048
lowerback -2.89485 -0.387872 -0.0584427
upperback -9.4776 -0.541588 0.140495
thorax -8.30799 -0.269491 0.20586
lowerneck -30.9874 3.92456 6.10238
upperneck 18.7248 3.04933 -1.38253
head 11.2316 1.65006 -0.938191
rclavicle -9.34288e-015 -7.35503e-015
rhumerus -4.17447 6.78664 -86.707
rradius 104.72
rwrist 16.1633
rhand 13.6675 -16.0172
rfingers 7.12502
rthumb 38.5959 -41.6518
lclavicle -9.34288e-015 -7.35503e-015
lhumerus -1.57184 0.89039 78.7303
lradius 108.637
lwrist 14.3068
lhand 19.615 19.9228
lfingers 7.12502
lthumb 44.1763 43.7397
rfemur -77.7361 4.35873 21.0568
rtibia 73.2456
rfoot -25.1227 -11.4563
rtoes -15.5807
lfemur -78.2276 -1.30171 -20.476
ltibia 69.4142
lfoot -22.9474 7.41984
ltoes -14.7933
246
root 5.88087 14.1219 -1.29274 34.8525 -5.09852 -1.43336
lowerback -2.92058 -0.382845 -0.108646
upperback -9.48003 -0.535065 0.150247
thorax -8.29513 -0.261962 0.243644
lowerneck -30.9887 3.91901 6.08022
upperneck 18.7634 3.05167 -1.38246
head 11.2461 1.64986 -0.934154
rclavicle 2.25621e-014 9.14409e-015
rhumerus -4.18551 6.73745 -86.6724
rradius 104.733
rwrist 16.1767
rhand 13.6189 -15.9942
rfingers 7.12502
rthumb 38.55 -41.6416
lclavicle 2.25621e-014 9.14409e-015
lhumerus -1.58465 0.869245 78.749
lradius 108.633
lwrist 14.3189
lhand 19.6278 19.9229
lfingers 7.12502
lthumb 44.1882 43.7352
rfemur -77.7299 4.2379 21.2021
rtibia 73.2188
rfoot -25.144 -11.3295
rtoes -15.4177
lfemur -78.2337 -1.16453 -20.5578
ltibia 69.3921
lfoot -22.9397 7.33054
ltoes -14.7646
247
root 5.87628 14.1232 -1.29643 34.8426 -5.10374 -1.4373
lowerback -2.94341 -0.379375 -0.179057
upperback -9.47435 -0.530966 0.160481
thorax -8.27486 -0.254097 0.293292
lowerneck -31.0087 3.91743 6.06529
upperneck 18.8051 3.05685 -1.38992
head 11.2654 1.65038 -0.933366
rclavicle 1.42628e-014 -3.97569e-016
rhumerus -4.1783 6.69187 -86.6393
rradius 104.744
rwrist 16.1879
rhand 13.5644 -15.9766
rfingers 7.12502
rthumb 38.4987 -41.6384
lclavicle 1.42628e-014 -3.97569e-016
lhumerus -1.58464 0.851967 78.7653
lradius 108.628
lwrist 14.3367
lhand 19.6336 19.9197
lfingers 7.12502
lthumb 44.1936 43.73
rfemur -77.719 4.11837 21.3353
rtibia 73.1957
rfoot -25.1708 -11.195
rtoes -15.2432
lfemur -78.2279 -1.01595 -20.6573
ltibia 69.3658
lfoot -22.9375 7.2264
ltoes -14.7302
248
root 5.87142 14.1245 -1.30015 34.8311 -5.11558 -1.43381
lowerback -2.96332 -0.375996 -0.263671
upperback -9.46585 -0.527405 0.167901
thorax -8.25311 -0.245566 0.347938
lowerneck -31.0474 3.91778 6.0493
upperneck 18.8569 3.06141 -1.38854
head 11.2915 1.65176 -0.929001
rclavicle 7.00716e-015 -3.77691e-015
rhumerus -4.16002 6.64436 -86.6102
rradius 104.753
rwrist 16.1946
rhand 13.5094 -15.9665
rfingers 7.12502
rthumb 38.4468 -41.6428
lclavicle 7.00716e-015 -3.77691e-015
lhumerus -1.57457 0.831451 78.7753
lradius 108.622
lwrist 14.3605
lhand 19.6467 19.9193
lfingers 7.12502
lthumb 44.2058 43.7249
rfemur -77.7103 3.99831 21.4589
rtibia 73.1766
rfoot -25.2007 -11.0526
rtoes -15.0676
lfemur -78.2183 -0.85736 -20.7721
ltibia 69.3361
lfoot -22.9393 7.10855
ltoes -14.6784
